<svg xmlns="http://www.w3.org/2000/svg" viewBox="0 0 841.5 109.4"><defs><style>.cls-1{fill:222.2 47.4% 11.2%}</style></defs><g id="Lager_2" data-name="Lager 2"><path d="M74.6 83.6H32.4l-8.9 26H.2L40 3h27.3l40 106.7H83.6zM69 67.2L58.5 37l-5-16.2h-.3l-4.6 15.9-10.4 30.4zM192.2 109.5l-25.7-40.8H146v40.8h-22.6V2.8h48.1q18.4 0 29 8.6T211.4 35q0 11.6-6 19.3t-17 11l29.5 44.3zM146 51.7h23q9.6 0 14.3-3.9T188 36q0-7.9-4.7-11.7t-14.4-3.8h-23zM355 109.4h-20.6V53.8l1-31.3h-.4l-30.3 87H286l-30.2-87h-.3l1.2 31.3v55.7H236V2.7h33.1l19.7 58.2 7 24.1h.4l7-24 19.6-58.3h32.1zM445.6 83.3h-42.2l-9 26H371L410.9 2.7h27.3l40 106.7h-23.6zM440 66.8l-10.5-30-5-16.3h-.3l-4.6 15.9-10.4 30.4zM699 83h-42.2l-9 26.2h-23.3L664.4 2.4h27.3l40 106.7H708zm-5.6-16.4l-10.5-30-5-16.3h-.2l-4.7 16-10.4 30.4zM841.7 109h-26.2l-38.3-62.8-9.4-17.4h-.2l.7 18.4V109h-20.5V2.3h26L812 64.8l9.4 17.6h.4L821 64V2.2h20.5z" class="cls-1" transform="translate(-.2 -2)"/></g><path d="M650.8 2A1204.8 1204.8 0 01635 30.4l-.2.4-3 5.3a1.2 1.2 0 00-.3.8c0 .3.4.4.6.7s-.1 1-.8 2.3l-1.8 4-.5 1.2a14.5 14.5 0 01-.7 1.5 44 44 0 00-1.5 3.5l-1.7 3.5a367.6 367.6 0 01-20 32.7 67.8 67.8 0 01-8.9 10 57 57 0 01-20 11.3c-6.6 2.2-12 2.7-18 3.3a109.6 109.6 0 01-14 .4 60 60 0 01-24.6-5.2 72.4 72.4 0 01-10.9-6.2 73.3 73.3 0 01-8.7-7.1 96.3 96.3 0 01-7.4-8.1l-9.5-11.8a100.8 100.8 0 01-7.1-11.2c-1-1.6-1.8-3.3-2.7-4.9a6.4 6.4 0 013.3-9.3 39.3 39.3 0 017.6-3.4l6.7-1.7 4.6-1.3a165.4 165.4 0 0115.3-2.7c10.3-1.3 13-1.3 14-1.3h4l4.6.1c4.7 0 9.3.4 14 .9a168.9 168.9 0 0119.3 3.3c1.8.3 3.6.5 6.1 1.2l8 2.4 4.8 1.4a48.5 48.5 0 008 1.9 29.4 29.4 0 006.4.1c1 0 2-.2 4.3-.6a16 16 0 003.7-1 11.8 11.8 0 002.4-1.2l1.1-1a19.9 19.9 0 003-3.5c2-2.8 1.5-2.3 2.2-3.3l3-3.8 1-1.4c.2-.4.7-1 1-1a1.8 1.8 0 00.5.2.8.8 0 00.3 0l.5-.6 5.6-10c1.6-2.8 3.6-6.8 8.2-14.6l3-4.8h4.6c2.2.2 4.3.2 6.4.2z" class="cls-1" transform="translate(-.2 -2)" id="Lager_3" data-name="Lager 3"/></svg>