<?xml version="1.0" encoding="UTF-8" standalone="no"?>
<svg
   version="1.1"
   id="Layer_1"
   x="0px"
   y="0px"
   width="32"
   viewBox="0 0 32 32"
   xml:space="preserve"
   height="32"
   xmlns="http://www.w3.org/2000/svg"
   xmlns:svg="http://www.w3.org/2000/svg"
   style="background-color:white;"
>
<g
   id="g25"
   transform="matrix(1.7,0,0,1.7,-11.635312,-12.272929)"><path
     fill="#000000"
     opacity="1"
     stroke="none"
     d="m 14.690388,18.59072 c -1.254464,-0.376878 -1.864328,-1.28948 -2.129321,-2.492995 -0.04019,-0.182524 -0.05954,-0.369596 -0.06048,-0.557228 -0.0021,-0.427643 0.177702,-0.645154 0.600541,-0.719448 0.422035,-0.07415 0.841136,-0.01599 1.257392,0.04896 1.007774,0.157255 1.968297,0.48112 2.916701,0.845093 0.323746,0.124244 0.652876,0.20684 1.005405,0.172507 0.304798,-0.02968 0.54624,-0.146343 0.701512,-0.423975 0.144766,-0.258847 0.304376,-0.509349 0.452789,-0.766219 0.05339,-0.0924 0.104103,-0.129899 0.208086,-0.06186 0.134745,0.08817 0.279341,0.161193 0.418705,0.242434 0.05642,0.03289 0.107353,0.06996 0.0616,0.148412 -0.484877,0.831455 -0.893336,1.708088 -1.441496,2.501538 -0.510363,0.738739 -1.262186,1.073198 -2.128988,1.186014 -0.11842,0.01541 -0.238272,0.01951 -0.357239,0.03112 -0.121043,0.01181 -0.14314,-0.04583 -0.14463,-0.157985 -0.0021,-0.156 0.125339,-0.24598 0.17036,-0.389942 -0.171114,0 -0.332402,0 -0.496314,0 -0.008,0.09862 0.05896,0.151706 0.09346,0.218521 0.113396,0.219642 0.04577,0.340269 -0.193071,0.325336 -0.311808,-0.01949 -0.62106,-0.06109 -0.935011,-0.150284 m 0.353479,-2.331929 c -0.0086,0.01302 -0.01793,0.0256 -0.02564,0.03912 -0.245706,0.430814 -0.212056,0.918237 0.09065,1.315564 0.230864,0.303028 0.720202,0.453327 1.131721,0.347611 0.455233,-0.116945 0.737471,-0.451584 0.808043,-0.958064 0.0666,-0.477932 -0.210852,-0.94755 -0.670753,-1.135337 -0.474328,-0.193678 -1.02284,-0.03911 -1.334026,0.39111 m 3.071292,0.239047 c -0.236318,0 -0.472637,0 -0.708956,0 5.47e-4,0.01099 0.0011,0.02199 0.0016,0.03298 0.380058,0 0.760118,0 1.140176,0 -0.133079,-0.04489 -0.26811,-0.02679 -0.432855,-0.03298 m -4.033347,-0.0013 c -0.227361,0 -0.454723,0 -0.682084,0 3.66e-4,0.01233 7.32e-4,0.02466 0.0011,0.037 0.326196,0 0.652392,0 0.978587,0 4.5e-4,-0.01228 8.96e-4,-0.02456 0.0013,-0.03684 -0.08966,0 -0.179326,0 -0.298947,-1.56e-4 m 4.192548,0.468932 c -0.291414,0 -0.582827,0 -0.874241,0 3.13e-4,0.01007 6.13e-4,0.02014 9.19e-4,0.03021 0.317953,0 0.635906,0 0.953859,0 1.88e-4,-0.0072 3.47e-4,-0.01436 5.19e-4,-0.02154 -0.01943,-0.0028 -0.03886,-0.0055 -0.08105,-0.0087 m -4.375632,0.04434 c 0.19646,0 0.39292,0 0.589379,0 -4.79e-4,-0.01079 -9.6e-4,-0.02158 -0.0014,-0.03237 -0.308158,0 -0.616315,0 -0.924473,0 -1.25e-4,0.01078 -2.18e-4,0.02155 -3.34e-4,0.03233 0.102116,0 0.204231,0 0.336867,3.1e-5 m 0.07983,-0.933768 c 0.05198,0 0.103951,0 0.155926,0 -8.75e-4,-0.01223 -0.0018,-0.02446 -0.0026,-0.03669 -0.264479,0 -0.528959,0 -0.793438,0 -2.5e-4,0.01211 -4.85e-4,0.02422 -7.25e-4,0.03633 0.20428,0 0.40856,0 0.640869,3.59e-4 m -0.03268,-0.517018 c -0.182672,0 -0.365344,0 -0.548015,0 4.15e-4,0.0131 8.28e-4,0.0262 0.0012,0.0393 0.227597,0 0.455194,0 0.694705,0 -0.03947,-0.05753 -0.08489,-0.03031 -0.147933,-0.0393 m 3.581248,1.918591 c 0.151751,-0.0056 0.304789,0.01434 0.454946,-0.03528 -0.224685,0 -0.449371,0 -0.674056,0 -5.32e-4,0.01172 -0.0011,0.02343 -0.0016,0.03514 0.06393,0 0.127857,0 0.220707,1.25e-4 m -3.345892,-0.04978 c -0.09002,0 -0.180038,0 -0.270057,0 4.06e-4,0.0111 8.13e-4,0.0222 0.0012,0.0333 0.232326,0 0.464652,0 0.696978,0 -0.131559,-0.05109 -0.265475,-0.02562 -0.428142,-0.0333 z"
     id="path1"
     style="stroke-width:0.03125" /><path
     fill="#000000"
     opacity="1"
     stroke="none"
     d="m 14.69376,20.772716 c -0.144782,0.346006 -0.287013,0.681064 -0.424744,1.017959 -0.04373,0.106974 -0.105899,0.169747 -0.230421,0.171566 -0.126217,0.0018 -0.186259,-0.0629 -0.230685,-0.169219 -0.132315,-0.316668 -0.269084,-0.631484 -0.405272,-0.94652 -0.02862,-0.0662 -0.06218,-0.130261 -0.09346,-0.195307 -0.01396,4.59e-4 -0.02792,9.15e-4 -0.04188,0.0014 0,0.05661 3.1e-5,0.113222 -9e-6,0.169832 -3.15e-4,0.343399 -0.0047,0.686865 0.0011,1.030163 0.0022,0.12972 -0.03743,0.195919 -0.175399,0.192848 -0.179014,-0.004 -0.221263,-0.0362 -0.221533,-0.201723 -10e-4,-0.629564 0.0027,-1.25915 -0.0018,-1.888683 -0.0011,-0.150633 0.05954,-0.200188 0.205264,-0.198735 0.306259,0.0031 0.304025,-0.0014 0.41812,0.277844 0.172567,0.422329 0.348696,0.8432 0.540605,1.306436 0.05066,-0.106817 0.08556,-0.173652 0.114667,-0.242925 0.161111,-0.38349 0.321325,-0.767359 0.480757,-1.151549 0.06997,-0.168611 0.37076,-0.262756 0.520254,-0.162675 0.05756,0.03853 0.05521,0.09571 0.05529,0.152862 9.38e-4,0.645143 -4.87e-4,1.290298 0.0039,1.935417 9.12e-4,0.133881 -0.06592,0.173937 -0.182699,0.172657 -0.118172,-0.0013 -0.218708,-0.01606 -0.217071,-0.174471 0.0036,-0.34856 0.0012,-0.697195 -9.44e-4,-1.045786 -3.41e-4,-0.05497 0.0158,-0.11494 -0.0281,-0.165157 -0.05592,0.01323 -0.06346,0.06262 -0.08587,0.11379 z"
     id="path2"
     style="stroke-width:0.03125" /><path
     fill="#000000"
     opacity="1"
     stroke="none"
     d="m 22.778938,10.069616 c -0.824482,1.44079 -1.640164,2.873431 -2.464024,4.301353 -0.160833,0.278758 -0.09744,0.303335 -0.439123,0.107872 -0.03973,-0.02273 -0.0759,-0.05168 -0.129561,-0.08867 0.126391,-0.221422 0.249062,-0.436529 0.371916,-0.65153 0.779246,-1.363684 1.559542,-2.726771 2.335707,-4.0922052 0.05599,-0.098498 0.11786,-0.1501675 0.232714,-0.1378087 0.121322,0.013056 0.246557,-0.018822 0.382431,0.028052 -0.07536,0.1924019 -0.195256,0.3498134 -0.29006,0.5329369 z"
     id="path3"
     style="stroke-width:0.03125" /><path
     fill="#000000"
     opacity="1"
     stroke="none"
     d="m 22.599012,21.268411 c 2.18e-4,0.203045 0.0043,0.390562 -4.97e-4,0.577858 -0.0043,0.171264 -0.04572,0.199608 -0.222542,0.20183 -0.145863,0.0018 -0.187452,-0.07151 -0.18698,-0.204371 0.0022,-0.614341 -0.0012,-1.228698 9.4e-5,-1.843046 1.88e-4,-0.08899 -0.0303,-0.215765 0.09671,-0.230938 0.130369,-0.01558 0.286499,-0.06905 0.386652,0.08098 0.184957,0.277052 0.36548,0.557071 0.551304,0.833534 0.129865,0.19321 0.242275,0.398918 0.402727,0.587398 0.04104,-0.06238 0.02683,-0.11959 0.02697,-0.172578 0.0011,-0.385268 0.0044,-0.770611 -0.002,-1.155779 -0.0025,-0.148008 0.06402,-0.186882 0.198931,-0.18742 0.13331,-5.31e-4 0.224516,0.0217 0.223716,0.181984 -0.0032,0.635156 -0.0026,1.270328 -0.0046,1.905491 -2.81e-4,0.08764 -0.01812,0.174701 -0.121351,0.191833 -0.127747,0.0212 -0.261952,0.04644 -0.352924,-0.08902 -0.168307,-0.250612 -0.335637,-0.501894 -0.505982,-0.751113 -0.14942,-0.218602 -0.302412,-0.434762 -0.490314,-0.64465 0,0.234129 0,0.468256 1.9e-5,0.718008 z"
     id="path4"
     style="stroke-width:0.03125" /><path
     fill="#000000"
     opacity="1"
     stroke="none"
     d="m 10.809217,21.703534 c -2.82e-4,-0.374328 0.0028,-0.73341 -0.0027,-1.092359 -0.0019,-0.122101 0.04402,-0.17804 0.164273,-0.160929 0.09751,0.01387 0.239408,-0.06173 0.24174,0.142287 0.0027,0.232616 0.01459,0.23248 0.241635,0.231239 0.109266,-5.97e-4 0.218663,0.002 0.327767,-0.0025 0.207465,-0.0086 0.341047,-0.146895 0.341451,-0.348393 4.04e-4,-0.201303 -0.119126,-0.318062 -0.338029,-0.321489 -0.275722,-0.0043 -0.551576,-0.0073 -0.827268,-0.0034 -0.140793,0.002 -0.179314,-0.06749 -0.175935,-0.193692 0.0033,-0.124267 0.04635,-0.198101 0.182724,-0.19708 0.296575,0.0022 0.593203,-0.0014 0.889753,0.0022 0.295265,0.0035 0.558387,0.204056 0.641896,0.482128 0.09472,0.315411 -0.006,0.634323 -0.256264,0.806677 -0.05511,0.03796 -0.113214,0.07155 -0.173867,0.109617 0.02096,0.101508 0.09174,0.16696 0.141829,0.243207 0.07996,0.121717 0.167872,0.238292 0.245736,0.361274 0.04854,0.07667 0.157031,0.151638 0.04918,0.255409 -0.07916,0.07617 -0.311113,0.04245 -0.380004,-0.05498 -0.153146,-0.216587 -0.299809,-0.43775 -0.451266,-0.65555 -0.06629,-0.09532 -0.294619,-0.143034 -0.39386,-0.08819 -0.05743,0.03174 -0.05087,0.08701 -0.05176,0.137167 -0.003,0.166462 -0.007,0.333121 -0.002,0.49944 0.0043,0.141622 -0.0581,0.196378 -0.196668,0.193212 -0.130861,-0.003 -0.229506,-0.0283 -0.21871,-0.189558 0.0031,-0.04662 3.85e-4,-0.09363 3.32e-4,-0.155754 z"
     id="path5"
     style="stroke-width:0.03125" /><path
     fill="#000000"
     opacity="1"
     stroke="none"
     d="m 19.271991,21.850814 c -0.219927,0.151793 -0.461451,0.186707 -0.707787,0.193831 -0.187057,0.0054 -0.374532,-0.0032 -0.561813,-0.006 -0.106565,-0.0016 -0.162279,-0.05037 -0.161947,-0.162808 0.0013,-0.432047 0.0021,-0.864126 -0.0019,-1.296146 -0.0014,-0.148716 0.09761,-0.13427 0.191396,-0.131602 0.0953,0.0027 0.206816,-0.02299 0.207491,0.135987 0.0013,0.301432 0.01276,0.602819 0.01419,0.904253 5.34e-4,0.112926 0.04558,0.163477 0.158428,0.156824 0.05184,-0.0031 0.104324,-0.0027 0.156082,0.0014 0.709084,0.057 0.898123,-0.657515 0.705107,-1.099899 -0.10595,-0.242831 -0.298656,-0.385903 -0.570559,-0.39399 -0.244438,-0.0073 -0.489288,-0.0063 -0.733837,-0.0021 -0.123401,0.0021 -0.152422,-0.0665 -0.148367,-0.167707 0.0039,-0.09728 -0.01079,-0.220999 0.132968,-0.220574 0.316688,9.38e-4 0.635925,-0.03888 0.94979,0.02252 0.495478,0.09692 0.819681,0.503101 0.835867,1.007497 0.01368,0.426243 -0.09238,0.792868 -0.465103,1.058508 z"
     id="path6"
     style="stroke-width:0.03125" /><path
     fill="#000000"
     opacity="1"
     stroke="none"
     d="m 15.810123,22.020202 c -0.04093,0.01346 -0.07099,0.02396 -0.101672,0.02627 -0.229766,0.01729 -0.286305,-0.05859 -0.200505,-0.274164 0.244407,-0.614085 0.493969,-1.226149 0.733438,-1.842142 0.05266,-0.135464 0.13223,-0.178278 0.270958,-0.176171 0.139549,0.0021 0.24782,0.01315 0.30866,0.169417 0.243517,0.625459 0.497347,1.246902 0.746435,1.870199 0.03517,0.088 0.07875,0.181452 -0.04904,0.236401 -0.12204,0.05248 -0.28657,0.0183 -0.332389,-0.07607 -0.04761,-0.09808 -0.08821,-0.200171 -0.123788,-0.303299 -0.03112,-0.09021 -0.08437,-0.131111 -0.181914,-0.138767 -0.23946,-0.01881 -0.478872,-0.008 -0.71824,-0.01242 -0.08652,-0.0016 -0.129026,0.04231 -0.161507,0.118263 -0.05693,0.133127 -0.08401,0.280297 -0.190437,0.402489 m 1.02456,-0.975214 c -0.09533,-0.23982 -0.164789,-0.49114 -0.30297,-0.761978 -0.146,0.299364 -0.237788,0.559824 -0.323669,0.843706 0.2044,0.02255 0.389531,0.01706 0.574615,0.0062 0.0353,-0.0021 0.0536,-0.02803 0.05202,-0.08796 z"
     id="path7"
     style="stroke-width:0.03125" /><path
     fill="#000000"
     opacity="1"
     stroke="none"
     d="M 8.6313125,22.050201 C 8.43598,22.02926 8.4032288,21.984664 8.4686988,21.820667 8.723116,21.183358 8.9836819,20.548492 9.2352591,19.910075 c 0.052832,-0.134069 0.1426725,-0.155885 0.26849,-0.154979 0.1278322,9.18e-4 0.2293756,0.01119 0.285445,0.15451 0.2480429,0.634026 0.5039819,1.264965 0.7565439,1.897227 0.0339,0.08488 0.06669,0.17201 -0.04737,0.225915 -0.113758,0.05377 -0.286657,0.01552 -0.331742,-0.07906 -0.04465,-0.09367 -0.08536,-0.190333 -0.115711,-0.289387 -0.03173,-0.10354 -0.088664,-0.156454 -0.200147,-0.156389 -0.2391644,1.25e-4 -0.4783456,-0.0043 -0.717491,-0.0085 -0.073212,-0.0013 -0.1152412,0.03383 -0.1403571,0.09966 -0.037055,0.09712 -0.079983,0.192068 -0.11518,0.289823 -0.040021,0.111153 -0.1089869,0.174479 -0.2464304,0.161286 m 0.662016,-0.910052 c 0.1745156,0 0.3490312,0 0.5560178,0 -0.1101094,-0.300947 -0.1987925,-0.572469 -0.3274878,-0.838381 -0.064662,0.09124 -0.3012735,0.66269 -0.3229935,0.750672 -0.01662,0.06732 0.012839,0.08445 0.094463,0.08771 z"
     id="path8"
     style="stroke-width:0.03125" /><path
     fill="#000000"
     opacity="1"
     stroke="none"
     d="m 20.502843,20.235599 c 0.03345,-0.08352 0.06165,-0.156254 0.09058,-0.228699 0.102102,-0.255644 0.120419,-0.264126 0.39043,-0.250879 0.09157,0.0045 0.147618,0.04519 0.178834,0.124143 0.259986,0.657639 0.518819,1.315731 0.777871,1.973738 0.03086,0.07838 0.02286,0.142248 -0.06517,0.178425 -0.122638,0.05039 -0.284475,0.01473 -0.331125,-0.08247 -0.04943,-0.102999 -0.0934,-0.209249 -0.130815,-0.317181 -0.02805,-0.08091 -0.07774,-0.112054 -0.160578,-0.119657 -0.249542,-0.0229 -0.499317,-0.0079 -0.748901,-0.01302 -0.0743,-0.0015 -0.113814,0.03771 -0.139124,0.102026 -0.04189,0.106445 -0.08768,0.211372 -0.128632,0.318164 -0.03409,0.08889 -0.09476,0.12768 -0.19054,0.129631 -0.216557,0.0044 -0.26368,-0.05596 -0.181368,-0.258798 0.20924,-0.515635 0.422174,-1.02977 0.638542,-1.55542 m 0.564278,0.904951 c 0.04281,-0.0075 0.09535,0.0166 0.124054,-0.03617 -0.04511,-0.223923 -0.213807,-0.660156 -0.305396,-0.775051 -0.123178,0.256706 -0.227176,0.510832 -0.309776,0.793251 0.166449,0.0343 0.316057,0.01331 0.491118,0.01797 z"
     id="path9"
     style="stroke-width:0.03125" /><path
     fill="#000000"
     opacity="1"
     stroke="none"
     d="m 14.734828,23.754091 c -0.225893,-0.01351 -0.357003,-0.134053 -0.423525,-0.327244 -0.06822,-0.198113 -0.03521,-0.385088 0.115603,-0.532505 0.14682,-0.143515 0.329228,-0.165526 0.52148,-0.100239 0.07537,0.0256 0.138096,0.07201 0.185612,0.136337 0.02888,0.0391 0.05176,0.08283 0.0082,0.125567 -0.04237,0.04158 -0.09194,0.0458 -0.140621,0.0098 -0.02493,-0.01843 -0.04488,-0.04367 -0.07004,-0.06172 -0.105907,-0.07596 -0.268107,-0.0616 -0.35672,0.03004 -0.112407,0.116243 -0.119793,0.299576 -0.0172,0.426937 0.08954,0.111153 0.249889,0.142828 0.36431,0.07144 0.03597,-0.02244 0.06833,-0.04808 0.06289,-0.100149 -0.03839,-0.0547 -0.103343,-0.03375 -0.155493,-0.04973 -0.04358,-0.01336 -0.07645,-0.03188 -0.07622,-0.08344 2.5e-4,-0.05311 0.03564,-0.07166 0.07973,-0.07864 0.10913,-0.01728 0.219126,-0.0043 0.324617,0.01633 0.08359,0.01633 0.0783,0.09988 0.06938,0.167928 -0.0276,0.210421 -0.202447,0.337153 -0.492011,0.349265 z"
     id="path10"
     style="stroke-width:0.03125" /><path
     fill="#000000"
     opacity="1"
     stroke="none"
     d="m 16.015994,23.752483 c -0.293232,0.02347 -0.478478,-0.09278 -0.552688,-0.336903 -0.07063,-0.232334 0.01344,-0.469591 0.20721,-0.584791 0.201261,-0.119656 0.457993,-0.08782 0.616341,0.07643 0.277229,0.287562 0.14044,0.733849 -0.270863,0.845265 M 15.855623,22.9688 c -0.180396,0.08343 -0.258504,0.254894 -0.188745,0.414324 0.06787,0.155113 0.230064,0.220039 0.3881,0.155353 0.1202,-0.0492 0.184227,-0.189382 0.15485,-0.339037 -0.03221,-0.164106 -0.130706,-0.233989 -0.354205,-0.23064 z"
     id="path11"
     style="stroke-width:0.03125" /><path
     fill="#000000"
     opacity="1"
     stroke="none"
     d="m 18.113538,23.181529 c 0.100317,0.10865 0.05883,0.162678 -0.05842,0.182307 -0.04052,0.0068 -0.08352,0.0073 -0.124335,0.0022 -0.140014,-0.01745 -0.18992,0.0479 -0.17519,0.180058 0.0034,0.03073 0.0011,0.06232 -7.37e-4,0.09339 -0.004,0.06698 -0.03599,0.104672 -0.107449,0.105752 -0.07181,0.0011 -0.10861,-0.03631 -0.108867,-0.103024 -9.63e-4,-0.249193 1.56e-4,-0.498423 0.004,-0.747586 9.9e-4,-0.06381 0.03624,-0.102407 0.10585,-0.111824 0.155273,-0.021 0.310947,-0.01713 0.466545,-0.01381 0.06079,0.0013 0.115221,0.02384 0.115501,0.09862 2.81e-4,0.07561 -0.0523,0.09445 -0.115221,0.09585 -0.08307,0.0018 -0.166189,0.0028 -0.249273,0.0022 -0.06928,-5.13e-4 -0.107029,0.02713 -0.106175,0.101162 8.44e-4,0.07328 0.03875,0.10051 0.107634,0.101234 0.07777,8.19e-4 0.155506,0.0056 0.24612,0.01352 z"
     id="path12"
     style="stroke-width:0.03125" /><path
     fill="#000000"
     opacity="1"
     stroke="none"
     d="m 16.663289,23.421436 c -3.1e-5,-0.181639 -0.0011,-0.348097 -1.25e-4,-0.514542 4.47e-4,-0.07509 0.02395,-0.137024 0.113924,-0.134941 0.08877,0.0021 0.109963,0.06243 0.109486,0.138868 -0.001,0.161251 0.0033,0.322651 -0.0024,0.483719 -0.004,0.113323 0.03908,0.163954 0.154625,0.155466 0.06717,-0.0049 0.135235,-0.0017 0.202662,0.0021 0.05118,0.0029 0.09154,0.0256 0.09307,0.08427 0.0014,0.05459 -0.02988,0.09372 -0.08066,0.09934 -0.165615,0.01833 -0.332281,0.01756 -0.498064,0.0022 -0.06175,-0.0057 -0.08201,-0.06029 -0.08686,-0.114426 -0.0055,-0.06197 -0.0042,-0.124555 -0.0057,-0.20206 z"
     id="path13"
     style="stroke-width:0.03125" /><path
     fill="#000000"
     opacity="1"
     stroke="none"
     d="m 16.868043,17.35579 c -0.08295,0.06547 -0.13977,0.148457 -0.234104,0.191996 -0.01158,-0.09482 0.152683,-0.282093 0.231609,-0.269564 0.04537,0.0072 0.03014,0.04316 0.0025,0.07757 z"
     id="path14"
     style="stroke-width:0.03125" /><path
     fill="#000000"
     opacity="1"
     stroke="none"
     d="m 16.213271,17.272554 c 0.04377,0.01843 0.07915,0.0314 0.07102,0.08816 -0.08155,0.01815 -0.165994,0.03695 -0.252259,0.05614 0.0035,-0.121456 0.0053,-0.122923 0.181242,-0.144308 z"
     id="path15"
     style="stroke-width:0.03125" /><path
     fill="#000000"
     opacity="1"
     stroke="none"
     d="m 16.345882,17.607581 c -0.05086,0.01896 -0.08854,0.06019 -0.13525,0.01887 0.06387,-0.151097 0.169315,-0.181383 0.278635,-0.08034 -0.02723,0.05876 -0.09087,0.03304 -0.143385,0.06147 z"
     id="path16"
     style="stroke-width:0.03125" /><path
     fill="#000000"
     opacity="1"
     stroke="none"
     d="m 16.473256,17.234546 c 0.07246,-0.04943 0.13403,-0.118359 0.227782,-0.03155 -0.07284,0.07049 -0.153376,0.107248 -0.23464,0.139833 -0.04101,-0.03851 -0.02026,-0.06927 0.0069,-0.108282 z"
     id="path17"
     style="stroke-width:0.03125" /><path
     fill="#000000"
     opacity="1"
     stroke="none"
     d="m 16.019465,17.650365 c -0.08162,-0.0046 -0.153658,0.0059 -0.223373,-0.02824 0.07536,-0.09109 0.202922,-0.109081 0.263593,-0.04388 0.03673,0.03948 0.02129,0.06306 -0.04022,0.07212 z"
     id="path18"
     style="stroke-width:0.03125" /><path
     fill="#000000"
     opacity="1"
     stroke="none"
     d="m 15.651299,17.275939 c 0.110773,-0.02197 0.184488,0.0083 0.245728,0.125883 -0.103565,-0.01579 -0.179235,-0.02122 -0.251305,-0.04027 -0.05684,-0.01502 -0.03265,-0.05115 0.0056,-0.08562 z"
     id="path19"
     style="stroke-width:0.03125" /><path
     fill="#000000"
     opacity="1"
     stroke="none"
     d="m 15.568008,17.480825 c 0.04959,0.02765 0.09232,0.04769 0.09055,0.113359 -0.09621,0.0093 -0.17252,-0.0371 -0.267553,-0.06902 0.04469,-0.09255 0.103891,-0.07628 0.177005,-0.04434 z"
     id="path20"
     style="stroke-width:0.03125" /><path
     fill="#000000"
     opacity="1"
     stroke="none"
     d="m 15.050678,17.33409 c 0.136085,-0.02938 0.180708,0.06108 0.239577,0.180203 -0.127322,-0.0236 -0.186942,-0.09388 -0.239577,-0.180203 z"
     id="path21"
     style="stroke-width:0.03125" /><path
     fill="#000000"
     opacity="1"
     stroke="none"
     d="m 15.276466,17.255161 c -0.06703,-0.05349 -0.05414,-0.09304 0.01503,-0.09044 0.08409,0.0032 0.159874,0.0367 0.169444,0.150474 -0.07487,0.01714 -0.119881,-0.03715 -0.184472,-0.06003 z"
     id="path22"
     style="stroke-width:0.03125" /><path
     fill="#000000"
     opacity="1"
     stroke="none"
     d="m 16.13502,17.872661 c -0.05466,-0.0095 -0.09963,0.03419 -0.142445,-0.0032 0.08626,-0.12628 0.148614,-0.13687 0.264735,-0.04473 -0.01365,0.06926 -0.07132,0.03793 -0.12229,0.04796 z"
     id="path23"
     style="stroke-width:0.03125" /><path
     fill="#000000"
     opacity="1"
     stroke="none"
     d="m 15.661941,17.847192 c -0.05726,-0.03827 -0.04368,-0.06995 0.0018,-0.07993 0.09046,-0.01986 0.173964,-0.01071 0.22048,0.102434 -0.08033,0.02956 -0.145562,-0.0038 -0.222247,-0.0225 z"
     id="path24"
     style="stroke-width:0.03125" /><path
     fill="#000000"
     opacity="1"
     stroke="none"
     d="m 16.823158,17.076362 c 0.04576,-0.06275 0.07544,-0.131186 0.17595,-0.142088 -0.03689,0.106071 -0.08302,0.18096 -0.162778,0.234051 -0.03217,-0.03342 -0.02528,-0.05815 -0.01317,-0.09196 z"
     id="path25"
     style="stroke-width:0.03125" /></g>
</svg>
